 http://img337.imageshack.us/img337/7049/collegecampus001.jpg

General
Complete name                            : College Campus 2011 DVDRIP.avi
Format                                   : AVI
Format/Info                              : Audio Video Interleave
File size                                : 813 MiB
Duration                                 : 1h 56mn
Overall bit rate                         : 976 Kbps
Writing application                      : Lavf52.93.0

Video
ID                                       : 0
Format                                   : MPEG-4 Visual
Format profile                           : Simple@L1
Format settings, BVOP                    : No
Format settings, QPel                    : No
Format settings, GMC                     : No warppoints
Format settings, Matrix                  : Default (H.263)
Codec ID                                 : FMP4
Duration                                 : 1h 56mn
Bit rate                                 : 834 Kbps
Width                                    : 624 pixels
Height                                   : 272 pixels
Display aspect ratio                     : 2.25:1
Frame rate                               : 29.970 fps
Color space                              : YUV
Chroma subsampling                       : 4:2:0
Bit depth                                : 8 bits
Scan type                                : Progressive
Compression mode                         : Lossy
Bits/(Pixel*Frame)                       : 0.164
Stream size                              : 695 MiB (85%)
Writing library                          : Lavc52.108.0

Audio
ID                                       : 1
Format                                   : MPEG Audio
Format version                           : Version 1
Format profile                           : Layer 2
Codec ID                                 : 50
Duration                                 : 1h 56mn
Bit rate mode                            : Constant
Bit rate                                 : 128 Kbps
Channel(s)                               : 2 channels
Sampling rate                            : 48.0 KHz
Compression mode                         : Lossy
Stream size                              : 107 MiB (13%)
Alignment                                : Aligned on interleaves
Interleave, duration                     : 24 ms (0.72 video frame)
Interleave, preload duration             : 48 ms

 
http://img708.imageshack.us/img708/3554/11921062.jpg